<mxfile host="app.diagrams.net" modified="2023-04-03T06:09:14.382Z" agent="Mozilla/5.0 (Windows NT 10.0; Win64; x64) AppleWebKit/537.36 (KHTML, like Gecko) Chrome/111.0.0.0 Safari/537.36" etag="W_ZVeTqXcW-7Td0EE4Pp" version="21.1.2" type="github">
  <diagram name="페이지-1" id="t-yoXFfWsxb9NFPnw0J1">
    <mxGraphModel dx="1351" dy="906" grid="1" gridSize="10" guides="1" tooltips="1" connect="1" arrows="1" fold="1" page="1" pageScale="1" pageWidth="827" pageHeight="1169" math="0" shadow="0">
      <root>
        <mxCell id="0" />
        <mxCell id="1" parent="0" />
        <mxCell id="emlEC8Lg0jCze4tRTVf4-5" value="" style="shape=actor;whiteSpace=wrap;html=1;" vertex="1" parent="1">
          <mxGeometry x="95" y="400.5" width="50" height="79" as="geometry" />
        </mxCell>
        <mxCell id="emlEC8Lg0jCze4tRTVf4-7" value="&lt;b&gt;&lt;font style=&quot;font-size: 14px;&quot;&gt;Client&lt;/font&gt;&lt;/b&gt;" style="fillColor=none;strokeColor=#5A6C86;dashed=1;verticalAlign=top;fontStyle=0;fontColor=#5A6C86;whiteSpace=wrap;html=1;movable=1;resizable=1;rotatable=1;deletable=1;editable=1;locked=0;connectable=1;" vertex="1" parent="1">
          <mxGeometry x="40" y="360" width="160" height="160" as="geometry" />
        </mxCell>
        <mxCell id="emlEC8Lg0jCze4tRTVf4-37" style="edgeStyle=orthogonalEdgeStyle;rounded=0;orthogonalLoop=1;jettySize=auto;html=1;entryX=1;entryY=0.5;entryDx=0;entryDy=0;entryPerimeter=0;" edge="1" parent="1" source="emlEC8Lg0jCze4tRTVf4-26" target="emlEC8Lg0jCze4tRTVf4-27">
          <mxGeometry relative="1" as="geometry" />
        </mxCell>
        <mxCell id="emlEC8Lg0jCze4tRTVf4-26" value="&lt;b&gt;&lt;font style=&quot;font-size: 13px;&quot;&gt;S3 Buckets&lt;/font&gt;&lt;/b&gt;" style="sketch=0;points=[[0,0,0],[0.25,0,0],[0.5,0,0],[0.75,0,0],[1,0,0],[0,1,0],[0.25,1,0],[0.5,1,0],[0.75,1,0],[1,1,0],[0,0.25,0],[0,0.5,0],[0,0.75,0],[1,0.25,0],[1,0.5,0],[1,0.75,0]];outlineConnect=0;fontColor=#232F3E;gradientColor=#60A337;gradientDirection=north;fillColor=#277116;strokeColor=#ffffff;dashed=0;verticalLabelPosition=bottom;verticalAlign=top;align=center;html=1;fontSize=12;fontStyle=0;aspect=fixed;shape=mxgraph.aws4.resourceIcon;resIcon=mxgraph.aws4.s3;" vertex="1" parent="1">
          <mxGeometry x="520" y="520" width="78" height="78" as="geometry" />
        </mxCell>
        <mxCell id="emlEC8Lg0jCze4tRTVf4-27" value="&lt;b&gt;&lt;font style=&quot;font-size: 13px;&quot;&gt;AWS CloudFront&lt;/font&gt;&lt;/b&gt;" style="sketch=0;points=[[0,0,0],[0.25,0,0],[0.5,0,0],[0.75,0,0],[1,0,0],[0,1,0],[0.25,1,0],[0.5,1,0],[0.75,1,0],[1,1,0],[0,0.25,0],[0,0.5,0],[0,0.75,0],[1,0.25,0],[1,0.5,0],[1,0.75,0]];outlineConnect=0;fontColor=#232F3E;gradientColor=#945DF2;gradientDirection=north;fillColor=#5A30B5;strokeColor=#ffffff;dashed=0;verticalLabelPosition=bottom;verticalAlign=top;align=center;html=1;fontSize=12;fontStyle=0;aspect=fixed;shape=mxgraph.aws4.resourceIcon;resIcon=mxgraph.aws4.cloudfront;" vertex="1" parent="1">
          <mxGeometry x="360" y="520" width="78" height="78" as="geometry" />
        </mxCell>
        <mxCell id="emlEC8Lg0jCze4tRTVf4-40" style="edgeStyle=orthogonalEdgeStyle;rounded=0;orthogonalLoop=1;jettySize=auto;html=1;entryX=1;entryY=0.5;entryDx=0;entryDy=0;" edge="1" parent="1" source="emlEC8Lg0jCze4tRTVf4-28" target="emlEC8Lg0jCze4tRTVf4-7">
          <mxGeometry relative="1" as="geometry" />
        </mxCell>
        <mxCell id="emlEC8Lg0jCze4tRTVf4-28" value="AWS Cloud" style="points=[[0,0],[0.25,0],[0.5,0],[0.75,0],[1,0],[1,0.25],[1,0.5],[1,0.75],[1,1],[0.75,1],[0.5,1],[0.25,1],[0,1],[0,0.75],[0,0.5],[0,0.25]];outlineConnect=0;gradientColor=none;html=1;whiteSpace=wrap;fontSize=12;fontStyle=0;container=1;pointerEvents=0;collapsible=0;recursiveResize=0;shape=mxgraph.aws4.group;grIcon=mxgraph.aws4.group_aws_cloud;strokeColor=#232F3E;fillColor=none;verticalAlign=top;align=left;spacingLeft=30;fontColor=#232F3E;dashed=0;" vertex="1" parent="1">
          <mxGeometry x="307" y="20" width="493" height="399.5" as="geometry" />
        </mxCell>
        <mxCell id="emlEC8Lg0jCze4tRTVf4-30" style="edgeStyle=orthogonalEdgeStyle;rounded=0;orthogonalLoop=1;jettySize=auto;html=1;entryX=1;entryY=0.5;entryDx=0;entryDy=0;entryPerimeter=0;" edge="1" parent="emlEC8Lg0jCze4tRTVf4-28" source="emlEC8Lg0jCze4tRTVf4-10" target="emlEC8Lg0jCze4tRTVf4-3">
          <mxGeometry relative="1" as="geometry" />
        </mxCell>
        <mxCell id="emlEC8Lg0jCze4tRTVf4-31" style="edgeStyle=orthogonalEdgeStyle;rounded=0;orthogonalLoop=1;jettySize=auto;html=1;entryX=1;entryY=0.5;entryDx=0;entryDy=0;entryPerimeter=0;" edge="1" parent="emlEC8Lg0jCze4tRTVf4-28" source="emlEC8Lg0jCze4tRTVf4-10" target="emlEC8Lg0jCze4tRTVf4-21">
          <mxGeometry relative="1" as="geometry" />
        </mxCell>
        <mxCell id="emlEC8Lg0jCze4tRTVf4-32" style="edgeStyle=orthogonalEdgeStyle;rounded=0;orthogonalLoop=1;jettySize=auto;html=1;entryX=1;entryY=0.5;entryDx=0;entryDy=0;entryPerimeter=0;" edge="1" parent="emlEC8Lg0jCze4tRTVf4-28" source="emlEC8Lg0jCze4tRTVf4-10" target="emlEC8Lg0jCze4tRTVf4-25">
          <mxGeometry relative="1" as="geometry" />
        </mxCell>
        <mxCell id="emlEC8Lg0jCze4tRTVf4-10" value="&lt;b&gt;&lt;font style=&quot;font-size: 13px;&quot;&gt;Amazone DynamicDB&lt;/font&gt;&lt;/b&gt;" style="sketch=0;points=[[0,0,0],[0.25,0,0],[0.5,0,0],[0.75,0,0],[1,0,0],[0,1,0],[0.25,1,0],[0.5,1,0],[0.75,1,0],[1,1,0],[0,0.25,0],[0,0.5,0],[0,0.75,0],[1,0.25,0],[1,0.5,0],[1,0.75,0]];outlineConnect=0;fontColor=#232F3E;gradientColor=#4D72F3;gradientDirection=north;fillColor=#3334B9;strokeColor=#ffffff;dashed=0;verticalLabelPosition=bottom;verticalAlign=top;align=center;html=1;fontSize=12;fontStyle=0;aspect=fixed;shape=mxgraph.aws4.resourceIcon;resIcon=mxgraph.aws4.dynamodb;" vertex="1" parent="emlEC8Lg0jCze4tRTVf4-28">
          <mxGeometry x="373" y="160.75" width="78" height="78" as="geometry" />
        </mxCell>
        <mxCell id="emlEC8Lg0jCze4tRTVf4-2" value="&lt;b&gt;&lt;font style=&quot;font-size: 13px;&quot;&gt;AWS API Gateway&lt;br&gt;&lt;/font&gt;&lt;/b&gt;" style="sketch=0;points=[[0,0,0],[0.25,0,0],[0.5,0,0],[0.75,0,0],[1,0,0],[0,1,0],[0.25,1,0],[0.5,1,0],[0.75,1,0],[1,1,0],[0,0.25,0],[0,0.5,0],[0,0.75,0],[1,0.25,0],[1,0.5,0],[1,0.75,0]];outlineConnect=0;fontColor=#232F3E;gradientColor=#945DF2;gradientDirection=north;fillColor=#5A30B5;strokeColor=#ffffff;dashed=0;verticalLabelPosition=bottom;verticalAlign=top;align=center;html=1;fontSize=12;fontStyle=0;aspect=fixed;shape=mxgraph.aws4.resourceIcon;resIcon=mxgraph.aws4.api_gateway;" vertex="1" parent="emlEC8Lg0jCze4tRTVf4-28">
          <mxGeometry x="53" y="40.25" width="78" height="78" as="geometry" />
        </mxCell>
        <mxCell id="emlEC8Lg0jCze4tRTVf4-15" style="edgeStyle=orthogonalEdgeStyle;rounded=0;orthogonalLoop=1;jettySize=auto;html=1;entryX=1;entryY=0.5;entryDx=0;entryDy=0;entryPerimeter=0;" edge="1" parent="emlEC8Lg0jCze4tRTVf4-28" source="emlEC8Lg0jCze4tRTVf4-3" target="emlEC8Lg0jCze4tRTVf4-2">
          <mxGeometry relative="1" as="geometry" />
        </mxCell>
        <mxCell id="emlEC8Lg0jCze4tRTVf4-33" style="edgeStyle=orthogonalEdgeStyle;rounded=0;orthogonalLoop=1;jettySize=auto;html=1;entryX=0;entryY=0.5;entryDx=0;entryDy=0;entryPerimeter=0;" edge="1" parent="emlEC8Lg0jCze4tRTVf4-28" source="emlEC8Lg0jCze4tRTVf4-3" target="emlEC8Lg0jCze4tRTVf4-10">
          <mxGeometry relative="1" as="geometry" />
        </mxCell>
        <mxCell id="emlEC8Lg0jCze4tRTVf4-3" value="&lt;b&gt;&lt;font style=&quot;font-size: 13px;&quot;&gt;AWS Lambda&lt;/font&gt;&lt;/b&gt;" style="sketch=0;points=[[0,0,0],[0.25,0,0],[0.5,0,0],[0.75,0,0],[1,0,0],[0,1,0],[0.25,1,0],[0.5,1,0],[0.75,1,0],[1,1,0],[0,0.25,0],[0,0.5,0],[0,0.75,0],[1,0.25,0],[1,0.5,0],[1,0.75,0]];outlineConnect=0;fontColor=#232F3E;gradientColor=#F78E04;gradientDirection=north;fillColor=#D05C17;strokeColor=#ffffff;dashed=0;verticalLabelPosition=bottom;verticalAlign=top;align=center;html=1;fontSize=12;fontStyle=0;aspect=fixed;shape=mxgraph.aws4.resourceIcon;resIcon=mxgraph.aws4.lambda;" vertex="1" parent="emlEC8Lg0jCze4tRTVf4-28">
          <mxGeometry x="213" y="40.25" width="78" height="78" as="geometry" />
        </mxCell>
        <mxCell id="emlEC8Lg0jCze4tRTVf4-13" style="edgeStyle=orthogonalEdgeStyle;rounded=0;orthogonalLoop=1;jettySize=auto;html=1;entryX=0;entryY=0.5;entryDx=0;entryDy=0;entryPerimeter=0;" edge="1" parent="emlEC8Lg0jCze4tRTVf4-28" source="emlEC8Lg0jCze4tRTVf4-2" target="emlEC8Lg0jCze4tRTVf4-3">
          <mxGeometry relative="1" as="geometry" />
        </mxCell>
        <mxCell id="emlEC8Lg0jCze4tRTVf4-19" value="&lt;b&gt;&lt;font style=&quot;font-size: 13px;&quot;&gt;AWS API Gateway&lt;br&gt;&lt;/font&gt;&lt;/b&gt;" style="sketch=0;points=[[0,0,0],[0.25,0,0],[0.5,0,0],[0.75,0,0],[1,0,0],[0,1,0],[0.25,1,0],[0.5,1,0],[0.75,1,0],[1,1,0],[0,0.25,0],[0,0.5,0],[0,0.75,0],[1,0.25,0],[1,0.5,0],[1,0.75,0]];outlineConnect=0;fontColor=#232F3E;gradientColor=#945DF2;gradientDirection=north;fillColor=#5A30B5;strokeColor=#ffffff;dashed=0;verticalLabelPosition=bottom;verticalAlign=top;align=center;html=1;fontSize=12;fontStyle=0;aspect=fixed;shape=mxgraph.aws4.resourceIcon;resIcon=mxgraph.aws4.api_gateway;" vertex="1" parent="emlEC8Lg0jCze4tRTVf4-28">
          <mxGeometry x="53" y="159.25" width="78" height="78" as="geometry" />
        </mxCell>
        <mxCell id="emlEC8Lg0jCze4tRTVf4-20" style="edgeStyle=orthogonalEdgeStyle;rounded=0;orthogonalLoop=1;jettySize=auto;html=1;entryX=1;entryY=0.5;entryDx=0;entryDy=0;entryPerimeter=0;" edge="1" parent="emlEC8Lg0jCze4tRTVf4-28" source="emlEC8Lg0jCze4tRTVf4-21" target="emlEC8Lg0jCze4tRTVf4-19">
          <mxGeometry relative="1" as="geometry" />
        </mxCell>
        <mxCell id="emlEC8Lg0jCze4tRTVf4-34" style="edgeStyle=orthogonalEdgeStyle;rounded=0;orthogonalLoop=1;jettySize=auto;html=1;" edge="1" parent="emlEC8Lg0jCze4tRTVf4-28" source="emlEC8Lg0jCze4tRTVf4-21">
          <mxGeometry relative="1" as="geometry">
            <mxPoint x="373" y="198.25" as="targetPoint" />
          </mxGeometry>
        </mxCell>
        <mxCell id="emlEC8Lg0jCze4tRTVf4-21" value="&lt;b&gt;&lt;font style=&quot;font-size: 13px;&quot;&gt;AWS Lambda&lt;/font&gt;&lt;/b&gt;" style="sketch=0;points=[[0,0,0],[0.25,0,0],[0.5,0,0],[0.75,0,0],[1,0,0],[0,1,0],[0.25,1,0],[0.5,1,0],[0.75,1,0],[1,1,0],[0,0.25,0],[0,0.5,0],[0,0.75,0],[1,0.25,0],[1,0.5,0],[1,0.75,0]];outlineConnect=0;fontColor=#232F3E;gradientColor=#F78E04;gradientDirection=north;fillColor=#D05C17;strokeColor=#ffffff;dashed=0;verticalLabelPosition=bottom;verticalAlign=top;align=center;html=1;fontSize=12;fontStyle=0;aspect=fixed;shape=mxgraph.aws4.resourceIcon;resIcon=mxgraph.aws4.lambda;" vertex="1" parent="emlEC8Lg0jCze4tRTVf4-28">
          <mxGeometry x="213" y="159.25" width="78" height="78" as="geometry" />
        </mxCell>
        <mxCell id="emlEC8Lg0jCze4tRTVf4-18" style="edgeStyle=orthogonalEdgeStyle;rounded=0;orthogonalLoop=1;jettySize=auto;html=1;entryX=0;entryY=0.5;entryDx=0;entryDy=0;entryPerimeter=0;" edge="1" parent="emlEC8Lg0jCze4tRTVf4-28" source="emlEC8Lg0jCze4tRTVf4-19" target="emlEC8Lg0jCze4tRTVf4-21">
          <mxGeometry relative="1" as="geometry" />
        </mxCell>
        <mxCell id="emlEC8Lg0jCze4tRTVf4-23" value="&lt;b&gt;&lt;font style=&quot;font-size: 13px;&quot;&gt;AWS API Gateway&lt;br&gt;&lt;/font&gt;&lt;/b&gt;" style="sketch=0;points=[[0,0,0],[0.25,0,0],[0.5,0,0],[0.75,0,0],[1,0,0],[0,1,0],[0.25,1,0],[0.5,1,0],[0.75,1,0],[1,1,0],[0,0.25,0],[0,0.5,0],[0,0.75,0],[1,0.25,0],[1,0.5,0],[1,0.75,0]];outlineConnect=0;fontColor=#232F3E;gradientColor=#945DF2;gradientDirection=north;fillColor=#5A30B5;strokeColor=#ffffff;dashed=0;verticalLabelPosition=bottom;verticalAlign=top;align=center;html=1;fontSize=12;fontStyle=0;aspect=fixed;shape=mxgraph.aws4.resourceIcon;resIcon=mxgraph.aws4.api_gateway;" vertex="1" parent="emlEC8Lg0jCze4tRTVf4-28">
          <mxGeometry x="53" y="281.25" width="78" height="78" as="geometry" />
        </mxCell>
        <mxCell id="emlEC8Lg0jCze4tRTVf4-24" style="edgeStyle=orthogonalEdgeStyle;rounded=0;orthogonalLoop=1;jettySize=auto;html=1;entryX=1;entryY=0.5;entryDx=0;entryDy=0;entryPerimeter=0;" edge="1" parent="emlEC8Lg0jCze4tRTVf4-28" source="emlEC8Lg0jCze4tRTVf4-25" target="emlEC8Lg0jCze4tRTVf4-23">
          <mxGeometry relative="1" as="geometry" />
        </mxCell>
        <mxCell id="emlEC8Lg0jCze4tRTVf4-36" style="edgeStyle=orthogonalEdgeStyle;rounded=0;orthogonalLoop=1;jettySize=auto;html=1;entryX=0;entryY=0.5;entryDx=0;entryDy=0;entryPerimeter=0;" edge="1" parent="emlEC8Lg0jCze4tRTVf4-28" source="emlEC8Lg0jCze4tRTVf4-25" target="emlEC8Lg0jCze4tRTVf4-10">
          <mxGeometry relative="1" as="geometry" />
        </mxCell>
        <mxCell id="emlEC8Lg0jCze4tRTVf4-25" value="&lt;b&gt;&lt;font style=&quot;font-size: 13px;&quot;&gt;AWS Lambda&lt;/font&gt;&lt;/b&gt;" style="sketch=0;points=[[0,0,0],[0.25,0,0],[0.5,0,0],[0.75,0,0],[1,0,0],[0,1,0],[0.25,1,0],[0.5,1,0],[0.75,1,0],[1,1,0],[0,0.25,0],[0,0.5,0],[0,0.75,0],[1,0.25,0],[1,0.5,0],[1,0.75,0]];outlineConnect=0;fontColor=#232F3E;gradientColor=#F78E04;gradientDirection=north;fillColor=#D05C17;strokeColor=#ffffff;dashed=0;verticalLabelPosition=bottom;verticalAlign=top;align=center;html=1;fontSize=12;fontStyle=0;aspect=fixed;shape=mxgraph.aws4.resourceIcon;resIcon=mxgraph.aws4.lambda;" vertex="1" parent="emlEC8Lg0jCze4tRTVf4-28">
          <mxGeometry x="213" y="281.25" width="78" height="78" as="geometry" />
        </mxCell>
        <mxCell id="emlEC8Lg0jCze4tRTVf4-22" style="edgeStyle=orthogonalEdgeStyle;rounded=0;orthogonalLoop=1;jettySize=auto;html=1;entryX=0;entryY=0.5;entryDx=0;entryDy=0;entryPerimeter=0;" edge="1" parent="emlEC8Lg0jCze4tRTVf4-28" source="emlEC8Lg0jCze4tRTVf4-23" target="emlEC8Lg0jCze4tRTVf4-25">
          <mxGeometry relative="1" as="geometry" />
        </mxCell>
        <mxCell id="emlEC8Lg0jCze4tRTVf4-39" style="edgeStyle=orthogonalEdgeStyle;rounded=0;orthogonalLoop=1;jettySize=auto;html=1;entryX=1;entryY=0.5;entryDx=0;entryDy=0;" edge="1" parent="1" source="emlEC8Lg0jCze4tRTVf4-38" target="emlEC8Lg0jCze4tRTVf4-7">
          <mxGeometry relative="1" as="geometry" />
        </mxCell>
        <mxCell id="emlEC8Lg0jCze4tRTVf4-38" value="AWS Cloud" style="points=[[0,0],[0.25,0],[0.5,0],[0.75,0],[1,0],[1,0.25],[1,0.5],[1,0.75],[1,1],[0.75,1],[0.5,1],[0.25,1],[0,1],[0,0.75],[0,0.5],[0,0.25]];outlineConnect=0;gradientColor=none;html=1;whiteSpace=wrap;fontSize=12;fontStyle=0;container=1;pointerEvents=0;collapsible=0;recursiveResize=0;shape=mxgraph.aws4.group;grIcon=mxgraph.aws4.group_aws_cloud;strokeColor=#232F3E;fillColor=none;verticalAlign=top;align=left;spacingLeft=30;fontColor=#232F3E;dashed=0;" vertex="1" parent="1">
          <mxGeometry x="308" y="479.5" width="332" height="160.5" as="geometry" />
        </mxCell>
        <mxCell id="emlEC8Lg0jCze4tRTVf4-44" style="edgeStyle=orthogonalEdgeStyle;rounded=0;orthogonalLoop=1;jettySize=auto;html=1;" edge="1" parent="1" source="emlEC8Lg0jCze4tRTVf4-41" target="emlEC8Lg0jCze4tRTVf4-26">
          <mxGeometry relative="1" as="geometry" />
        </mxCell>
        <mxCell id="emlEC8Lg0jCze4tRTVf4-41" value="" style="dashed=0;outlineConnect=0;html=1;align=center;labelPosition=center;verticalLabelPosition=bottom;verticalAlign=top;shape=mxgraph.weblogos.github" vertex="1" parent="1">
          <mxGeometry x="720" y="520" width="80" height="80" as="geometry" />
        </mxCell>
      </root>
    </mxGraphModel>
  </diagram>
</mxfile>
